<svg id="Camada_1" data-name="Camada 1" xmlns="http://www.w3.org/2000/svg" viewBox="0 0 10 10"><defs><style>.cls-1{fill:#fff;}</style></defs><path class="cls-1" d="M5,10a5,5,0,1,1,5-5A5,5,0,0,1,5,10ZM5,.39A4.61,4.61,0,1,0,9.61,5,4.62,4.62,0,0,0,5,.39Zm.57,7.47H4.15V5.58H3.77a.34.34,0,0,1-.36-.34c0-.24,0-.49,0-.73a.35.35,0,0,1,.36-.36h.38V3.9c0-.19,0-.39,0-.58A1.26,1.26,0,0,1,5.27,2.18a4.53,4.53,0,0,1,.73,0h.23a.35.35,0,0,1,.34.37v.56a.36.36,0,0,1-.4.39H5.76c-.14,0-.19,0-.19.2s0,.31,0,.47h.64a.38.38,0,0,1,.3.12.33.33,0,0,1,.08.3c0,.23,0,.46-.08.7a.34.34,0,0,1-.36.31H5.57Zm-1-.4h.64V5.19h.94c0-.22.06-.43.08-.64h-1l0-.16a.43.43,0,0,1,0-.11V3.66a.56.56,0,0,1,.58-.59h.42a4.67,4.67,0,0,0,0-.53H6a5,5,0,0,0-.68,0,.87.87,0,0,0-.75.79,4.78,4.78,0,0,0,0,.54v.64H3.8v.65h.74Z"/><path class="cls-1" d="M6.21,4.35H5.38s0,0,0-.08V3.66a.36.36,0,0,1,.39-.39c.13,0,.27,0,.41,0s.2-.06.2-.2V2.51c0-.11,0-.17-.15-.17a7,7,0,0,0-.92,0,1.07,1.07,0,0,0-.93,1c0,.26,0,.53,0,.79v.22H3.77a.16.16,0,0,0-.17.16c0,.24,0,.48,0,.72a.14.14,0,0,0,.16.16h.57V7.66h1V5.39h.77a.16.16,0,0,0,.17-.15c0-.23,0-.46.08-.69S6.35,4.35,6.21,4.35Z"/></svg>