<svg id="Camada_1" data-name="Camada 1" xmlns="http://www.w3.org/2000/svg" viewBox="0 0 10 10"><defs><style>.cls-1{fill:#fff;}</style></defs><path class="cls-1" d="M5,10a5,5,0,1,1,5-5A5,5,0,0,1,5,10ZM5,.39A4.61,4.61,0,1,0,9.63,5,4.61,4.61,0,0,0,5,.39ZM2.41,7.63l.22-.84.17-.62a2.4,2.4,0,0,1-.27-.82A2.46,2.46,0,0,1,3,3.44a2.39,2.39,0,0,1,.9-.74,2.42,2.42,0,0,1,.69-.22,2.6,2.6,0,0,1,.68,0,2.45,2.45,0,0,1,1.07.37,2.4,2.4,0,0,1,.89.95,2.18,2.18,0,0,1,.27.79,2,2,0,0,1,0,.65h0A2.52,2.52,0,0,1,6.11,7.27a2.31,2.31,0,0,1-.63.2,2.24,2.24,0,0,1-.58,0,2.39,2.39,0,0,1-.8-.18l-.17-.07,0,0Zm1.51-.8.18.07L4.25,7a2.5,2.5,0,0,0,.68.15,1.94,1.94,0,0,0,.48,0,2.34,2.34,0,0,0,.53-.17,2.14,2.14,0,0,0,.76-.6,2.06,2.06,0,0,0,.46-1.14,2,2,0,0,0,0-.55A2.16,2.16,0,0,0,6.92,4a2.12,2.12,0,0,0-.76-.81,2.09,2.09,0,0,0-1.47-.29,1.87,1.87,0,0,0-.58.18,2.06,2.06,0,0,0-.77.63,2.09,2.09,0,0,0-.44,1.1,2.18,2.18,0,0,0,0,.51A2.29,2.29,0,0,0,3.17,6l0,.07,0,.11L3,7.08Z"/><path class="cls-1" d="M6.45,3.65a1.91,1.91,0,0,0-1.16-.59,1.62,1.62,0,0,0-.58,0A1.87,1.87,0,0,0,4,3.34a1.93,1.93,0,0,0-.66.7,1.79,1.79,0,0,0-.24.75,2.06,2.06,0,0,0,0,.43,2.21,2.21,0,0,0,.11.46,3.55,3.55,0,0,0,.2.39,0,0,0,0,1,0,0l-.15.53c0,.06,0,.11,0,.17h0L4,6.61H4a1.4,1.4,0,0,0,.17.09,1.76,1.76,0,0,0,.71.2,1.68,1.68,0,0,0,.5,0,1.84,1.84,0,0,0,.8-.34,1.87,1.87,0,0,0,.58-.67A1.84,1.84,0,0,0,7,5.08a1.87,1.87,0,0,0,0-.53A2,2,0,0,0,6.45,3.65ZM6.17,5.82a.23.23,0,0,1-.08.11.72.72,0,0,1-.27.15.75.75,0,0,1-.21,0A1.08,1.08,0,0,1,5.3,6a2.17,2.17,0,0,1-.67-.36,3.19,3.19,0,0,1-.44-.46c-.07-.1-.14-.19-.2-.29a.93.93,0,0,1-.13-.35A.62.62,0,0,1,4,4a.2.2,0,0,1,.13-.08h.16A.09.09,0,0,1,4.42,4a.54.54,0,0,1,0,.11l.17.39a.1.1,0,0,1,0,.09.74.74,0,0,1-.15.21.08.08,0,0,0,0,.11,1.68,1.68,0,0,0,.68.64l.14.06a.08.08,0,0,0,.1,0l.19-.23s.06-.06.12,0l.2.09.27.14a.1.1,0,0,1,.06.09A.59.59,0,0,1,6.17,5.82Z"/></svg>