<svg id="Camada_1" data-name="Camada 1" xmlns="http://www.w3.org/2000/svg" viewBox="0 0 100 81"><defs><style>.cls-1{fill:#6100ad;}</style></defs><path class="cls-1" d="M91.84,35.52A13.07,13.07,0,0,0,90.72,34a12.13,12.13,0,0,0-5.82-3.65c-.37-.1-.75-.19-1.12-.26a12.38,12.38,0,0,0-2.13-.19A12.13,12.13,0,0,0,69.53,42.05a11.93,11.93,0,0,0,1.27,5.38h-.1l.76,1.16a.43.43,0,0,0,0,.07l.24.36h0c.19.28.38.53.57.76A12.09,12.09,0,0,0,90.75,50a11.43,11.43,0,0,0,1.11-1.48,12,12,0,0,0,0-13ZM81.65,32.58a9.54,9.54,0,0,1,1.83.18,8.09,8.09,0,0,1,1,.24,9.5,9.5,0,0,1,6.68,9,9.36,9.36,0,0,1-.68,3.5,9.92,9.92,0,0,1-1,1.83h0a9.44,9.44,0,0,1-15.4.37l0,0a9.38,9.38,0,0,1-1.89-5.66A9.49,9.49,0,0,1,81.65,32.58Z"/><path class="cls-1" d="M98,42.05a16.27,16.27,0,0,0-6.1-12.72l0-19.39a4.34,4.34,0,0,0-.74-3.38A5,5,0,0,0,87,4.89H85.46v-5l-1.3,0c-.46,0-11.34-.17-23.47,0C52.44,0,48.68,1.16,47,2.27,45.27,1.16,41.52,0,33.26-.13,20.78-.3,9.85-.13,9.79-.13l-1.3,0v5H7A5,5,0,0,0,2.78,6.56,4.34,4.34,0,0,0,2,9.94L2,57.59H76.52l0,0V76.33a4.46,4.46,0,0,0,8.92,0V58c.42-.1.85-.23,1.3-.38H92V54.73A16.29,16.29,0,0,0,98,42.05ZM90.68,52.4c-.31.27-.65.53-1,.78A13.53,13.53,0,0,1,86.2,55a12.68,12.68,0,0,1-1.68.49,13.45,13.45,0,0,1-6.33-.16,10.68,10.68,0,0,1-1.1-.33,13.76,13.76,0,0,1-7.36-6.13c-.19-.32-.35-.65-.51-1l0,0A13.72,13.72,0,0,1,81.65,28.31a13.34,13.34,0,0,1,1.88.14c.33.05.66.09,1,.16a13.47,13.47,0,0,1,5.13,2.29q.52.38,1,.78a13.69,13.69,0,0,1,0,20.72ZM82.84,76.33a1.82,1.82,0,0,1-3.64,0V58.25a14.6,14.6,0,0,0,3.64.14ZM4.64,9.5a1.77,1.77,0,0,1,.23-1.33A2.77,2.77,0,0,1,7,7.53H8.49V50.06H36a3.55,3.55,0,0,1,2.49.94,5.83,5.83,0,0,1,1.58,4H4.61L4.68,9.81ZM35.87,47.42H11.13V2.49c3.06,0,12.1-.12,22.1,0,9,.12,11.73,1.54,12.43,2v46.9h2.63V4.56c.7-.5,3.47-1.93,12.43-2,10-.14,19-.06,22.11,0V25.72c-.42,0-.8,0-1.18,0a17,17,0,0,0-2.49.2V24.28H50.87v3h23.7a16.34,16.34,0,0,0-8.4,20.13H58.09a6.12,6.12,0,0,0-4.43,1.63,8.61,8.61,0,0,0-2.44,6H42.74a8.61,8.61,0,0,0-2.43-6A6.24,6.24,0,0,0,35.87,47.42Zm53.45-38,0,.19,0,17.92a16.5,16.5,0,0,0-3.84-1.45V7.53H87a2.76,2.76,0,0,1,2.09.64A1.75,1.75,0,0,1,89.32,9.46ZM55.44,51a3.64,3.64,0,0,1,2.6-.94h9.33A16.47,16.47,0,0,0,71.56,55H53.88A5.91,5.91,0,0,1,55.44,51Z"/><rect class="cls-1" x="14.53" y="9.97" width="28.3" height="3.02"/><rect class="cls-1" x="14.53" y="17.33" width="28.3" height="3.02"/><rect class="cls-1" x="14.53" y="23.86" width="28.3" height="3.02"/><rect class="cls-1" x="50.87" y="10.38" width="28.3" height="3.02"/><rect class="cls-1" x="50.87" y="17.75" width="28.3" height="3.02"/></svg>