<svg id="Camada_1" data-name="Camada 1" xmlns="http://www.w3.org/2000/svg" viewBox="0 0 100 81"><defs><style>.cls-1{fill:#6100ad;}</style></defs><path class="cls-1" d="M100,27.67A11.57,11.57,0,0,0,89.12,17.3a12.15,12.15,0,0,0-9.44,3.44L68.37,31.37V24.73A1.26,1.26,0,0,0,68,24L42.44.23,42.36.16A1.66,1.66,0,0,0,42.15,0L42-.11,5-.34A4.9,4.9,0,0,0,0,4.44v71.7a4.89,4.89,0,0,0,5,4.78H63.37a4.89,4.89,0,0,0,5-4.78V61.85l28-25.38.13.1.86-1A10.84,10.84,0,0,0,100,27.67Zm-57.34-3.9V4L63.87,23.77ZM63.37,78.31H5a2.26,2.26,0,0,1-2.34-2.17V4.44A2.26,2.26,0,0,1,5,2.27l35,.21v23.9H65.71v7.49l-8.9,8.36H10.13v2.61H54l-6.87,6.45h-37V53.9H44.4l-2.66,2.49-4.5,16.75H55.91l9.8-8.88V76.14A2.26,2.26,0,0,1,63.37,78.31ZM53.16,63.17l.76,7.36H43.62V70a2.26,2.26,0,0,0-1.8-2.2l-.36-.08,2.4-8.92,7.76,2.58A2.21,2.21,0,0,1,53.16,63.17Zm-.68-4.3-7-2.34L80.66,23.44,94.33,34.77,56.45,69.1l-.64-6.19A4.82,4.82,0,0,0,52.48,58.87ZM82.64,21.66a9.57,9.57,0,0,1,6.28-1.75,8.9,8.9,0,0,1,8.39,8,8.32,8.32,0,0,1-1.21,5Z"/><rect class="cls-1" x="33.83" y="9.57" width="2.61" height="50.02" transform="translate(0.34 69.49) rotate(-89.64)"/></svg>