<svg id="Camada_1" data-name="Camada 1" xmlns="http://www.w3.org/2000/svg" viewBox="0 0 1649 461"><defs><style>.cls-1{fill:#141316;}.cls-2{fill:#6100ad;}</style></defs><path class="cls-1" d="M764.22,206.2V178.83q0-35.06,25.35-35.06,19.14,0,26.69,21l89.8-65.53Q861.3,41.83,794.69,41.83q-60.41,0-100.18,42.21T654.73,190.69v17H764.37C764.33,207.19,764.22,206.71,764.22,206.2Z"/><path class="cls-2" d="M802.07,312.62a39,39,0,0,0-37.85,39V419.1H654.73V218.73H802.07v93.89Z"/><path class="cls-2" d="M919.41,284.75q0,63.19,34.07,98.77t95.06,35.58h29.67V310.3h-5.77q-24.74,0-33.11-8.66T1031,266.89V215H919.41Z"/><polygon class="cls-1" points="1030.95 44.07 1030.95 44.07 919.41 44.07 919.41 44.07 919.41 203.71 1030.95 203.71 1030.95 44.07"/><path class="cls-1" d="M1645.28,44.07h-114l-21,51a17.1,17.1,0,0,1-31,1.28l-26.8-52.25H1336.19l84,159.64h139.79Z"/><path class="cls-2" d="M1648.58,419.1H1531.26l-29.61-58.35a17.09,17.09,0,0,0-31,1l-24.61,57.35H1330.7L1426.07,215h127.85Z"/><path class="cls-2" d="M1209.37,296.55v-2.3a25.32,25.32,0,0,1,25.32-25.32h81.17V215h-207.7v89.29q0,55.78,32.69,85.31t94.51,29.54H1323V321.87h-88.32A25.32,25.32,0,0,1,1209.37,296.55Z"/><path class="cls-1" d="M1209.37,178.39v-2.31a25.32,25.32,0,0,1,25.32-25.32H1323V44.07h-97q-56,0-87,29.67t-30.91,83.53v46.44h126.53A25.32,25.32,0,0,1,1209.37,178.39Z"/><path class="cls-2" d="M601.79,215.34c-5.11-6.12-10.75-11.83-16.2-17.36-7.14-7.23-14.52-14.71-20.51-23-8.48-11.67-11.4-24.79-14.49-38.68a196.43,196.43,0,0,0-6.14-23.12c-11.3-32-42.12-57.46-82.44-68-16.9-4.41-35.46-6.61-58.41-6.92-3.64-.06-7.43.07-11.45.19-15.75.49-33.61,1.05-44.22-9.36a73,73,0,0,1-7.82-9.71C335,12.38,329.74,5.07,321,1.61c-24.5-9.65-42.79,27-44.8,31.19l-.14.33c-.92,2.49-1.83,4.88-2.71,7.2-2.51,6.61-4.9,12.87-6.69,19.09-90.57,46.4-168,120.66-218.22,209.29a6.73,6.73,0,0,0-.76,1.15c-.93,1.78-1.87,3.55-2.8,5.29-1.11,2-2.2,4.05-3.26,6.05-3.34,6.13-6.81,12.34-10.16,18.34-3.75,6.73-7.64,13.69-11.38,20.6l-1.28,2.37C11.35,336.19,3.67,350.33,1,366.17-1,377.5-.12,386.86,3.58,394.78c4.07,8.72,12,15.48,24.13,20.69C46,423.29,67.53,425,93.54,420.54c15.73-2.66,31.07-7.39,45.91-12,7.54-2.32,15.34-4.72,23.05-6.8,22.46-6.08,48.26-11.19,69.25-3,8.37,3.27,17.87,10.68,19.42,21.71a72.73,72.73,0,0,1,.54,7.5c.27,7,.56,14.22,6.09,21,6.83,8.35,16.7,11.95,26.51,11.95a40.78,40.78,0,0,0,21.2-5.92c18.67-11.6,25.78-32.8,32.06-51.51,1-3.08,2.06-6.13,3.12-9.11,8.35-23.41,25.88-41.86,49.36-51.95l.16-.07c2.5-1.21,5-2.35,7.41-3.39l2.17-.92a33,33,0,0,1,23.9-.77c6.83,2.44,13.49,5,20.27,7.63,2.52,1,5.07,2,7.65,3,34,13.32,72.53,28.42,108.92,17,20.15-6.32,31.06-14.45,33.37-24.87,2.4-10.85-.41-24.41-6.72-33.47A63.11,63.11,0,0,0,597,277.33c11.16-1.64,19.56-9,21.86-19.5C622.25,242.49,612.13,227.75,601.79,215.34ZM578,342.49a75.68,75.68,0,0,1-18.27,9.56c-14.75,5.35-32,5.63-52.87.83-18.55-4.27-36.66-11.27-54.19-18-6.07-2.35-12.35-4.77-18.59-7.06a.85.85,0,0,1,.06-1.62c21.27-6.07,43.39-10.42,64.85-14.59a35.25,35.25,0,0,0,12.93,13c15.76,9,39,8.91,56.42-.28a47,47,0,0,0,10.41-7.53,22.5,22.5,0,0,1,1.53,3.89C582.08,326.85,584.22,338,578,342.49ZM385.12,331h0c-2.08,1-4.17,2.05-6.21,3.11a85.88,85.88,0,0,0-39.59,32.26c-6.76,10.23-10.56,21.7-14.24,32.79-3.18,9.57-6.17,18.61-10.92,27-6.46,11.38-22.2,28.17-40.3,18.86a16.93,16.93,0,0,1-7.29-6.8c-1.68-3.22-1.7-7.09-1.72-11.2,0-1.32,0-2.63-.07-3.94a38.57,38.57,0,0,0-12-26.46c-10.38-10.08-25.71-15.15-45.69-15.15a135,135,0,0,0-14.12.77c-20,2.06-39.35,8-58.05,13.77l-9.29,2.84c-20.41,6.16-42.32,11.73-64.21,10.65-7.56-.38-45.4-3.5-48-28.66C11.72,363.9,20.81,347,28.82,332l1.1-2c4.28-8,8.78-16.05,13.13-23.85,5.44-9.73,11.05-19.8,16.32-29.87l.1-.2C86,235.65,125.58,203.49,174,183a334.29,334.29,0,0,1,80.58-22.28c1.59-.24,3.25-.52,4.94-.81l2-.33c-6.41,8.81-12.45,17.67-17.77,25.54-5,7.34-10.12,14.94-12.37,24.09-5.35,21.67,5.4,43.3,12.28,54.27A129.32,129.32,0,0,0,325.23,321c11,2.39,22.27,2.92,33.15,3.43a241.93,241.93,0,0,1,25.94,2.17l.22,0a2.18,2.18,0,0,1,1.89,1.92A2.26,2.26,0,0,1,385.12,331Zm-121.34-256c-.06,1.16-.08,2.33-.06,3.47,0,.88,0,1.79,0,2.72,0,6,0,12.73,2.81,18.39a21.76,21.76,0,0,0,14.83,11.56,22.28,22.28,0,0,0,18.84-4.17c2.22-1.74,4.24-3.51,6.2-5.22,5.78-5.06,10.84-9.49,18.36-10.92a79.74,79.74,0,0,0-15.63,11.63c-13.71,12.91-25.65,27.93-35.52,40.92a6.73,6.73,0,0,1-4.69,2.58c-4.7.48-9.32,1.3-13.79,2.1-2,.35-4,.7-5.89,1a361.64,361.64,0,0,0-41.4,9.07,312.82,312.82,0,0,0-72.39,30.29,270.79,270.79,0,0,0-34,23.4A517.26,517.26,0,0,1,263.78,74.94ZM344.1,51.13C368,91.2,413,106.42,453.24,117.54c3.1.85,6.22,1.67,9.36,2.48,7.46,1.94,15.15,4,22.41,6.55q-1.17-.21-2.31-.36c-5.23-.69-11.69-1.56-18.12-.53l-5.74-.69,1.53,5.72c1.95,7.24,13.76,22.27,15.12,24,3.4,4.22,15.56,17.58,28.94,12.12A19.59,19.59,0,0,0,514.75,157,69.58,69.58,0,0,1,524.41,169c6.21,9.85,8.19,20.9,10.3,32.6l.43,2.39c3.52,19.38,12,33.78,26,43.91a10.56,10.56,0,0,0-1.16,6.85c1.61,10.15,16.25,19,21.16,20.86a4.76,4.76,0,0,1,3,5.21A50.81,50.81,0,0,1,577.86,298c-7.57-4.34-16.8-5.47-25.65-5.47-5.38,0-10.62.41-15.26.79l-.63.05a295.73,295.73,0,0,0-30,4.13c-.14-.44-.28-.88-.4-1.34a57,57,0,0,1-1.19-6.48c-1.14-7.77-2.55-17.44-11.89-21-7.51-2.9-15.73-.34-23,1.91-2.17.68-4.22,1.32-6.06,1.75A185.12,185.12,0,0,1,422.49,277c-20.34,0-49.86-2.72-75.29-16.32s-31.08-39-34.84-64c-.26-1.75-.51-3.62-.76-5.57-2.09-15.79-5.22-39.44-24.76-44.47a372.35,372.35,0,0,1,26.76-31.21c15.71-16.15,31-22.28,45.43-18.23a6.2,6.2,0,0,0,4.05-11.71C350.31,80.19,331.33,73.94,314,81c-6.53,2.64-11.33,7-16,11.24-1.36,1.23-2.72,2.47-4.14,3.68a12,12,0,0,1-11.29,2.55c-2.11-.72-4.82-2.52-5.77-7-5.94-28.07,12.7-56.33,24.35-70.68,3.95-4.87,7.76-7.52,11.33-7.89,2.68-.26,5.38.74,8.25,3.09,3.22,2.63,5.8,6.11,8.53,9.8l1.31,1.77c4.88,6.5,9.55,11.7,15.44,15.49a6.32,6.32,0,0,0-2.1,2.2A5.85,5.85,0,0,0,344.1,51.13Zm157.64,95.45c.76.47,1.54,1,2.37,1.55-.16.45-.35.89-.56,1.34-1.81,3.65-3.73,5.87-5.41,6.25-2.37.54-5.87-2.26-8.95-4.71l-.85-.68A76.09,76.09,0,0,1,476,135.64C484.33,136.46,493.23,141.29,501.74,146.58Zm67.93,161.64-.62.57c-8.11,7.23-21,10.87-34.5,9.73-9.32-.79-16.61-4-21.73-9.54A231.93,231.93,0,0,1,545,305.19C553.77,304.89,562.78,305.08,569.67,308.22ZM360.3,312.09c-15.85-.73-32.67-1.95-48.81-8.11-28.38-10.83-52.77-33.31-63.65-58.66-7.42-17.27-6.77-33.06,1.92-46.91,7.52-12,16.52-24.82,28.23-40.26,7.42.45,12.07,3.12,14.95,8.52,4.15,7.76,5.38,17.59,6.57,27.1.33,2.63.67,5.35,1.07,7.94,3.35,21.88,8.66,46.56,29.34,62.57,15.76,12.2,37.74,19.92,67.2,23.61A200.45,200.45,0,0,0,474,282.44l2.11-.59c4.63-1.31,9.41-2.67,12.05-1.18,1.33.75,2.37,2.43,3.08,5a64.25,64.25,0,0,1,1.38,6.95c.39,2.35.78,4.77,1.41,7.2-4.49.91-9,1.86-13.37,2.79l-3.18.66c-21.75,4.58-43,9.27-63.69,16.21a7.87,7.87,0,0,1-4.59.08l-.13,0C394.35,315.29,378.84,312.93,360.3,312.09ZM576,257.49a9.24,9.24,0,0,1-1.18-1.89c6.82,2.76,12.76,3.31,18.06,1.7,4-1.21,6.87-3.49,8.19-6.41a9.2,9.2,0,0,0-.17-7.85,11.14,11.14,0,0,0-6.6-6c-6.47-2.34-15.85,0-22.66,2.92a58.82,58.82,0,0,1-13.39-11.47c-7.6-8.92-9.55-19.92-11.62-31.55a136.78,136.78,0,0,0-4.16-18.46c-4.29-13.29-12.72-25.51-24.38-35.34l-1.79-1.46C514,132.6,506.5,123.07,498,118.61s-18.29-7-27.58-9.33c-2.51-.64-5-1.27-7.48-2-13.86-3.79-28.19-7.71-42-12.86-29.8-11.13-51.4-26.8-64.27-46.61l.41.12c11.28,3.28,23,3.05,34.37,2.82,3.39-.07,6.89-.14,10.26-.1,20.28.19,36.54,1.8,51.17,5.07,19.84,4.42,55.88,16.74,74.41,49.55,5.71,10.11,8,21.08,10.46,32.69,1.19,5.64,2.41,11.47,4.06,17.2,3.69,12.83,10.64,24.92,21.25,37,4.35,4.94,9,9.67,13.51,14.25,5.65,5.74,11.5,11.67,16.63,17.95,3.8,4.64,16,20.6,13.66,31.41-.75,3.46-3,6.09-7,8C592.6,267.44,581.43,264.48,576,257.49Z"/></svg>