<svg id="Camada_1" data-name="Camada 1" xmlns="http://www.w3.org/2000/svg" viewBox="0 0 10 10"><defs><style>.cls-1{fill:#fff;}</style></defs><path class="cls-1" d="M6.05,3h-2a1,1,0,0,0-1,1v2a1,1,0,0,0,1,1h2a1,1,0,0,0,1-1V4A1,1,0,0,0,6.05,3Zm-1,3.15A1.19,1.19,0,1,1,6.26,4.94,1.19,1.19,0,0,1,5.07,6.13ZM6.29,4a.29.29,0,1,1,.29-.29A.29.29,0,0,1,6.29,4Z"/><circle class="cls-1" cx="5.07" cy="4.94" r="0.78"/><path class="cls-1" d="M5.07,9.86A4.93,4.93,0,1,1,10,4.93,4.93,4.93,0,0,1,5.07,9.86Zm0-9.47A4.54,4.54,0,1,0,9.61,4.93,4.54,4.54,0,0,0,5.07.39Zm1,7.06H4A1.49,1.49,0,0,1,2.55,6V3.9A1.49,1.49,0,0,1,4,2.42H6.1A1.48,1.48,0,0,1,7.58,3.9V6A1.49,1.49,0,0,1,6.1,7.45ZM4,2.8a1.1,1.1,0,0,0-1.1,1.1V6A1.1,1.1,0,0,0,4,7.06H6.1A1.1,1.1,0,0,0,7.2,6V3.9A1.1,1.1,0,0,0,6.1,2.8Z"/></svg>